<?xml version="1.0" encoding="utf-8"?>
<!-- Generator: Adobe Illustrator 22.0.1, SVG Export Plug-In . SVG Version: 6.00 Build 0)  -->
<svg version="1.1" id="レイヤー_1" xmlns="http://www.w3.org/2000/svg" xmlns:xlink="http://www.w3.org/1999/xlink" x="0px"
	 y="0px" viewBox="0 0 191.3 191.1" style="enable-background:new 0 0 191.3 191.1;" xml:space="preserve">
<style type="text/css">
	.st0{clip-path:url(#SVGID_2_);}
	.st1{fill:#FFFFFF;}
	.st2{clip-path:url(#SVGID_4_);}
</style>
<title>アセット 1</title>
<g id="レイヤー_2_1_">
	<g id="レイヤー_2-2">
		<g>
			<defs>
				<polygon id="SVGID_1_" points="-6.2,-7.1 196.2,195.3 -5.8,194.3 				"/>
			</defs>
			<clipPath id="SVGID_2_">
				<use xlink:href="#SVGID_1_"  style="overflow:visible;"/>
			</clipPath>
			<g class="st0">
				<path class="st1" d="M160.3,130.5c4.5,0,7.8,0.7,10.4,2.3c2.1,1.3,3.8,3.1,5.2,5.1l0.1,0.1c0.9,1.2,1.9,2.3,3,3.4
					c1.1,1.1,2.2,2.1,3.4,3c2.1,1.4,3.8,3.2,5.2,5.3c1.5,2.6,2.3,6,2.3,10.4s-0.7,7.8-2.3,10.4c-1.4,2.1-3.1,3.9-5.2,5.3
					c-1.2,0.9-2.3,1.9-3.4,3c-1.1,1.1-2.1,2.2-3,3.4l-0.1,0.1c-1.4,2-3.2,3.8-5.2,5.1c-2.6,1.5-5.9,2.3-10.4,2.3s-7.8-0.7-10.4-2.3
					c-2.1-1.4-3.9-3.1-5.3-5.2c-0.9-1.2-1.9-2.3-3-3.4c-1.1-1.1-2.2-2.1-3.4-3h-0.1c-2-1.4-3.8-3.2-5.1-5.2c-1.5-2.6-2.3-6-2.3-10.4
					s0.7-7.9,2.3-10.4c1.4-2.1,3.1-3.9,5.2-5.3c1.2-0.9,2.3-1.9,3.4-3c1.1-1.1,2.1-2.2,3-3.4c1.4-2.1,3.2-3.8,5.3-5.2
					C152.4,131.3,155.9,130.5,160.3,130.5 M160.3,129.1c-5.2,0-8.6,1-11.1,2.5c-2.2,1.5-4.2,3.3-5.7,5.5c-1.8,2.3-3.9,4.4-6.2,6.2
					c-2.2,1.5-4.1,3.4-5.5,5.7c-1.5,2.5-2.5,6-2.5,11.1s1,8.6,2.5,11.1c1.5,2.2,3.3,4.2,5.5,5.7c1.2,0.9,2.2,1.9,3.3,2.9
					c1,1,2,2.1,2.9,3.3c1.5,2.2,3.4,4.1,5.7,5.5c2.5,1.5,5.9,2.5,11.1,2.5l0,0c5.2,0,8.6-1,11.1-2.5c2.2-1.5,4.1-3.3,5.7-5.5
					c0.9-1.2,1.9-2.3,2.9-3.3c1-1,2.1-2,3.3-2.9c2.2-1.5,4.1-3.4,5.5-5.7c1.5-2.5,2.5-5.9,2.5-11.1s-1-8.6-2.5-11.1
					c-1.5-2.2-3.3-4.1-5.5-5.7c-1.2-0.9-2.2-1.9-3.3-2.9c-1-1-2-2.1-2.9-3.3c-1.5-2.2-3.4-4.1-5.7-5.5
					C168.8,130.1,165.4,129.1,160.3,129.1L160.3,129.1z"/>
				<path class="st1" d="M95.6,130.5c4.5,0,7.8,0.7,10.4,2.3c2.1,1.3,3.8,3.1,5.2,5.1l0.1,0.1c0.9,1.2,1.9,2.3,3,3.4
					c1.1,1.1,2.2,2.1,3.4,3c2,1.4,3.8,3.2,5.2,5.3c1.5,2.6,2.3,6,2.3,10.4s-0.7,7.9-2.3,10.4c-1.4,2.1-3.1,3.9-5.2,5.3
					c-1.2,0.9-2.3,1.9-3.4,3c-1.1,1.1-2.1,2.2-3,3.4v0.1c-1.4,2-3.2,3.8-5.2,5.1c-2.6,1.5-5.9,2.3-10.4,2.3s-7.8-0.7-10.4-2.3
					c-2.1-1.4-3.9-3.1-5.3-5.2c-0.9-1.2-1.9-2.3-3-3.4c-1.1-1.1-2.2-2.1-3.4-3l0,0c-2-1.4-3.8-3.2-5.1-5.2c-1.5-2.6-2.3-6-2.3-10.4
					s0.7-7.9,2.3-10.4c1.4-2.1,3.1-3.9,5.2-5.3c1.2-0.9,2.3-1.9,3.4-3c1.1-1.1,2.1-2.2,3-3.4l0,0c1.4-2,3.2-3.8,5.2-5.1
					C87.8,131.4,91.3,130.6,95.6,130.5 M95.7,129.2c-5.2,0-8.6,1-11.2,2.5c-2.2,1.4-4.2,3.3-5.7,5.4c-0.9,1.2-1.9,2.2-2.9,3.3
					c-1,1-2.1,2-3.3,2.9c-2.2,1.5-4.1,3.4-5.5,5.7c-1.5,2.5-2.5,6-2.5,11.1s1,8.6,2.5,11.1c1.5,2.2,3.3,4.2,5.5,5.7
					c1.2,0.9,2.2,1.9,3.3,2.9c1,1,2,2.1,2.9,3.3c1.5,2.2,3.5,4.1,5.7,5.5c2.5,1.5,5.9,2.5,11.1,2.5l0,0c5.2,0,8.6-1,11.1-2.5
					c2.2-1.5,4.1-3.3,5.7-5.5c1.8-2.3,3.9-4.4,6.2-6.2c2.2-1.5,4.1-3.4,5.5-5.7c1.5-2.5,2.5-5.9,2.5-11.1s-1-8.6-2.5-11.1
					c-1.5-2.2-3.3-4.2-5.5-5.7c-1.2-0.9-2.2-1.9-3.3-2.9c-1-1-2-2.1-2.9-3.3c-1.5-2.2-3.4-4.1-5.7-5.5
					C104.2,130.1,100.8,129.1,95.7,129.2L95.7,129.2z"/>
				<path class="st1" d="M31,130.5c4.5,0,7.8,0.7,10.4,2.3c2,1.3,3.8,3.1,5.2,5.1l0.1,0.1c0.9,1.2,1.9,2.3,3,3.4
					c1.1,1.1,2.2,2.1,3.4,3c2,1.4,3.8,3.2,5.2,5.3c1.5,2.6,2.3,6,2.3,10.4s-0.7,7.9-2.3,10.4c-1.4,2.1-3.1,3.9-5.2,5.3
					c-1.2,0.9-2.3,1.9-3.4,3c-1.1,1.1-2.1,2.2-3,3.4l-0.1,0.1c-1.4,2-3.2,3.8-5.2,5.1c-2.6,1.5-6,2.3-10.4,2.3s-7.8-0.7-10.4-2.3
					c-2.1-1.4-3.9-3.1-5.3-5.2c-0.9-1.2-1.9-2.3-3-3.4c-1.1-1.1-2.2-2.1-3.4-3l-0.1-0.1c-2-1.4-3.8-3.2-5.1-5.2
					c-1.5-2.6-2.3-6-2.3-10.4s0.7-7.9,2.3-10.4c1.4-2.1,3.1-3.9,5.1-5.3c1.2-0.9,2.3-1.9,3.4-3c1.1-1.1,2.1-2.2,3-3.4l0,0
					c1.4-2,3.2-3.8,5.2-5.1C23,131.3,26.5,130.6,31,130.5 M30.9,129.2c-5.2,0-8.6,1-11.1,2.5c-2.2,1.5-4.2,3.3-5.7,5.5
					c-0.9,1.2-1.9,2.2-2.9,3.3c-1,1-2.1,2-3.3,2.9c-2.2,1.5-4.1,3.4-5.5,5.7c-1.5,2.5-2.5,6-2.5,11.1s1,8.6,2.5,11.1
					c1.5,2.2,3.3,4.2,5.5,5.7c1.2,0.9,2.2,1.9,3.3,2.9c1,1,2,2.1,2.9,3.3c1.6,2.2,3.5,4,5.8,5.5c2.5,1.5,5.9,2.5,11.1,2.5l0,0
					c5.2,0,8.6-1,11.1-2.5c2.2-1.5,4.1-3.3,5.7-5.5c0.9-1.2,1.9-2.2,2.9-3.3c1-1,2.1-2,3.3-2.9c2.2-1.5,4.1-3.4,5.5-5.7
					c1.5-2.5,2.5-5.9,2.5-11.1s-1-8.6-2.5-11.1c-1.5-2.2-3.3-4.1-5.5-5.6c-2.3-1.8-4.4-3.9-6.2-6.2c-1.5-2.2-3.4-4.1-5.7-5.5
					C39.6,130.1,36.1,129.1,30.9,129.2L30.9,129.2z"/>
				<path class="st1" d="M95.6,66c4.5,0,7.8,0.7,10.4,2.3c2.1,1.4,3.8,3.1,5.2,5.1v0.1c0.9,1.2,1.9,2.3,3,3.4c1.1,1.1,2.2,2.1,3.4,3
					c2,1.4,3.8,3.2,5.2,5.3c1.5,2.6,2.3,6,2.3,10.4s-0.7,7.9-2.3,10.4c-1.4,2.1-3.1,3.8-5.1,5.2h-0.1c-1.2,0.9-2.3,1.9-3.4,3
					c-1.1,1.1-2.1,2.2-3,3.4v0.1c-1.4,2-3.2,3.8-5.2,5.1c-2.6,1.5-5.9,2.3-10.4,2.3s-7.8-0.7-10.4-2.3c-2.1-1.4-3.9-3.1-5.3-5.2
					c-0.9-1.2-1.9-2.3-3-3.4c-1.1-1.1-2.2-2.1-3.4-3l-0.1-0.1c-2-1.4-3.8-3.2-5.1-5.2c-1.5-2.6-2.3-6-2.3-10.4s0.7-7.9,2.3-10.4
					c1.4-2.1,3.1-3.9,5.2-5.3c1.2-0.9,2.3-1.9,3.4-3c1.1-1.1,2.1-2.2,3-3.4c1.4-2,3.2-3.8,5.3-5.1C87.8,66.7,91.2,65.9,95.6,66
					 M95.6,64.5c-5.2,0-8.6,1-11.2,2.5c-2.2,1.5-4.1,3.4-5.6,5.6c-0.9,1.2-1.9,2.2-2.9,3.3c-1,1-2.1,2-3.3,2.9
					c-2.2,1.5-4.1,3.4-5.5,5.7c-1.5,2.5-2.5,6-2.5,11.1s1,8.6,2.5,11.2c1.5,2.2,3.3,4.1,5.5,5.6c1.2,0.9,2.3,1.9,3.3,3
					c1,1,2,2.1,2.9,3.3c1.5,2.2,3.5,4.1,5.7,5.5c2.5,1.5,5.9,2.5,11.1,2.5l0,0c5.2,0,8.6-1,11.1-2.5c2.2-1.5,4.1-3.3,5.7-5.5
					c1.8-2.3,3.9-4.4,6.2-6.2c2.2-1.5,4.1-3.4,5.5-5.7c1.5-2.5,2.5-5.9,2.5-11.2s-1-8.6-2.5-11.1c-1.5-2.2-3.3-4.2-5.5-5.7
					c-1.2-0.9-2.2-1.9-3.3-2.9c-1-1-2-2.1-2.9-3.3c-1.5-2.2-3.4-4.1-5.7-5.5C104.2,65.6,100.7,64.6,95.6,64.5L95.6,64.5z"/>
				<path class="st1" d="M31,66c4.4,0,7.9,0.7,10.4,2.3c2,1.3,3.8,3.1,5.2,5.1l0.1,0.1c0.9,1.2,1.9,2.3,3,3.4c1.1,1.1,2.2,2.1,3.4,3
					c2,1.4,3.8,3.2,5.2,5.3c1.5,2.6,2.3,6,2.3,10.4s-0.7,7.9-2.3,10.4c-1.4,2.1-3.1,3.8-5.2,5.2l0,0c-1.2,0.9-2.3,1.9-3.4,3
					c-1.1,1.1-2.1,2.2-3,3.4l-0.1,0.1c-1.4,2-3.2,3.7-5.2,5.1c-2.6,1.5-6,2.3-10.4,2.3s-7.8-0.7-10.4-2.3c-2.1-1.4-3.9-3.1-5.3-5.2
					c-0.9-1.2-1.9-2.3-3-3.4c-1.1-1.1-2.2-2.1-3.4-3l-0.1-0.1c-2-1.4-3.8-3.2-5.1-5.2c-1.5-2.6-2.3-6-2.3-10.4S2.2,87.6,3.7,85
					c1.4-2,3.1-3.8,5.1-5.2c1.2-0.9,2.3-1.9,3.4-3c1.1-1.1,2.1-2.2,3-3.4c1.4-2,3.2-3.8,5.3-5.1C23.1,66.7,26.5,66,31,66 M30.9,64.6
					c-5.2,0-8.6,1-11.1,2.5c-2.2,1.5-4.2,3.3-5.7,5.5c-0.9,1.2-1.9,2.2-2.9,3.3c-1,1-2.1,2-3.3,2.9c-2.2,1.5-4.1,3.4-5.5,5.7
					c-1.5,2.5-2.5,6-2.5,11.1s1,8.6,2.5,11.2c1.5,2.2,3.4,4.1,5.6,5.6c1.2,0.9,2.3,1.9,3.3,3c1,1,2,2.1,2.9,3.3
					c1.5,2.2,3.5,4,5.7,5.5c2.5,1.5,5.9,2.5,11.1,2.5l0,0c5.2,0,8.6-1,11.1-2.5c2.2-1.5,4.1-3.3,5.7-5.5c0.9-1.2,1.9-2.2,2.9-3.3
					c1-1.1,2.1-2,3.3-3c2.2-1.5,4.1-3.4,5.5-5.7c1.5-2.5,2.5-5.9,2.5-11.2s-1-8.6-2.5-11.1c-1.5-2.2-3.3-4.2-5.5-5.7
					c-2.3-1.8-4.4-3.9-6.2-6.2c-1.5-2.2-3.4-4.1-5.7-5.5C39.6,65.5,36.1,64.5,30.9,64.6L30.9,64.6z"/>
				<path class="st1" d="M31.1,1.4L31.1,1.4c4.5,0,7.8,0.7,10.4,2.3c2,1.3,3.8,3.1,5.2,5.1l0.1,0.1c0.9,1.2,1.9,2.3,3,3.4
					c1.1,1.1,2.2,2.1,3.4,3c2.1,1.4,3.8,3.2,5.2,5.3c1.5,2.6,2.3,6,2.3,10.4s-0.7,7.9-2.3,10.4c-1.4,2.1-3.1,3.8-5.1,5.2l0,0l0,0
					c-1.2,0.9-2.3,1.9-3.4,3c-1.1,1.1-2.1,2.2-3,3.4l-0.1,0.1c-1.4,2-3.2,3.8-5.2,5.2c-2.6,1.5-5.9,2.3-10.4,2.3s-7.9-0.8-10.4-2.3
					c-2.1-1.4-3.8-3.1-5.2-5.1v0c-0.9-1.2-1.9-2.3-3-3.4c-1.1-1.1-2.2-2.1-3.4-3H9c-2-1.4-3.8-3.2-5.1-5.2c-1.5-2.5-2.3-6-2.3-10.4
					s0.7-7.9,2.3-10.4c1.4-2.1,3.1-3.9,5.1-5.4c1.2-0.9,2.3-1.9,3.4-3c1.1-1.1,2.1-2.2,3-3.4c1.4-2,3.2-3.8,5.3-5.2
					C23.2,2.2,26.6,1.5,31.1,1.4 M31,0c-5.2,0-8.6,1-11.1,2.5C17.7,4,15.8,5.8,14.2,8c-0.9,1.2-1.8,2.3-2.9,3.3c-1,1-2.1,2-3.3,2.9
					c-2.2,1.5-4.1,3.4-5.5,5.7C1.1,22.4,0.1,25.8,0.1,31s1,8.6,2.5,11.1c1.5,2.2,3.3,4.2,5.5,5.7c1.1,0.9,2.2,1.9,3.3,2.9
					c1,1,2,2.1,2.9,3.3c1.5,2.2,3.4,4.1,5.7,5.5C22.5,61,25.9,62,31.1,62s8.6-1,11.1-2.5c2.2-1.5,4.1-3.4,5.6-5.6
					c0.9-1.2,1.9-2.3,2.9-3.3c1-1,2.1-2,3.3-2.9c2.2-1.5,4.1-3.5,5.5-5.7C61,39.6,62,36.2,62,31s-1-8.6-2.5-11.1
					c-1.5-2.2-3.3-4.2-5.5-5.7c-1.1-0.9-2.2-1.8-3.2-2.9c-1.1-1-2-2.1-2.9-3.3c-1.5-2.2-3.4-4.1-5.7-5.5C39.7,1,36.3,0,31,0L31,0z"
					/>
			</g>
		</g>
		<g>
			<defs>
				<polygon id="SVGID_3_" points="-6.1,-7.1 196.2,195.3 196.2,-7.7 				"/>
			</defs>
			<clipPath id="SVGID_4_">
				<use xlink:href="#SVGID_3_"  style="overflow:visible;"/>
			</clipPath>
			<g class="st2">
				<path class="st1" d="M131.8,171.2c1.5,2.2,3.3,4.2,5.5,5.7c1.2,0.9,2.2,1.9,3.3,2.9c1,1,2,2.1,2.9,3.3c1.5,2.2,3.4,4.1,5.7,5.5
					c2.5,1.5,5.9,2.5,11.1,2.5s8.6-1,11.1-2.5c2.2-1.5,4.1-3.3,5.7-5.5c0.9-1.2,1.9-2.3,2.9-3.3c1-1,2.1-2,3.3-2.9
					c2.2-1.5,4.1-3.4,5.5-5.7c1.5-2.5,2.5-5.9,2.5-11.1s-1-8.6-2.5-11.1c-1.5-2.2-3.3-4.1-5.5-5.7c-1.2-0.9-2.2-1.9-3.3-2.9
					c-1-1-2-2.1-2.9-3.3c-1.5-2.2-3.4-4.1-5.7-5.5c-2.5-1.5-6-2.5-11.1-2.5s-8.6,1-11.1,2.5c-2.2,1.5-4.2,3.3-5.7,5.5
					c-1.8,2.3-3.9,4.4-6.2,6.2c-2.2,1.5-4.1,3.4-5.5,5.7c-1.5,2.5-2.5,6-2.5,11.1S130.3,168.7,131.8,171.2z"/>
				<path class="st1" d="M131.8,106.7c1.5,2.2,3.3,4.1,5.5,5.7c1.2,0.9,2.2,1.9,3.3,2.9c1,1,2,2.1,2.9,3.3c1.5,2.2,3.4,4.1,5.7,5.5
					c2.5,1.5,5.9,2.5,11.1,2.5s8.6-1,11.1-2.5c2.2-1.5,4.1-3.3,5.7-5.5c0.9-1.2,1.9-2.3,2.9-3.3c1-1,2.1-2,3.3-2.9
					c2.2-1.5,4.1-3.4,5.5-5.7c1.5-2.5,2.5-5.9,2.5-11.2s-1-8.6-2.5-11.1c-1.5-2.2-3.3-4.1-5.5-5.7c-1.2-0.9-2.2-1.9-3.3-2.9
					c-1-1-2-2.1-2.9-3.3c-1.5-2.2-3.4-4.1-5.7-5.5c-2.5-1.5-6-2.5-11.1-2.5s-8.6,1-11.1,2.5c-2.2,1.5-4.2,3.3-5.7,5.5
					c-1.8,2.3-3.9,4.4-6.2,6.2c-2.2,1.5-4.1,3.4-5.5,5.7c-1.5,2.5-2.5,6-2.5,11.1S130.3,104.2,131.8,106.7z"/>
				<path class="st1" d="M67.1,106.7c1.5,2.2,3.3,4.1,5.5,5.6c1.2,0.9,2.3,1.9,3.3,3c1,1,2,2.1,2.9,3.3c1.5,2.2,3.5,4.1,5.7,5.5
					c2.5,1.5,5.9,2.5,11.2,2.5s8.6-1,11.1-2.5c2.2-1.5,4.1-3.3,5.7-5.5c1.8-2.3,3.9-4.4,6.2-6.2c2.2-1.5,4.1-3.4,5.5-5.7
					c1.5-2.5,2.5-5.9,2.5-11.2s-1-8.6-2.5-11.1c-1.5-2.2-3.3-4.1-5.5-5.7c-1.2-0.9-2.2-1.9-3.3-2.9c-1-1-2-2.1-2.9-3.3
					c-1.5-2.2-3.4-4.1-5.7-5.5c-2.5-1.5-6-2.5-11.1-2.5s-8.6,1-11.2,2.5c-2.2,1.4-4.1,3.3-5.7,5.5c-1.8,2.3-3.9,4.4-6.2,6.2
					c-2.2,1.5-4.1,3.4-5.5,5.7c-1.5,2.5-2.5,6-2.5,11.1S65.6,104.2,67.1,106.7z"/>
				<path class="st1" d="M131.8,42.1c1.5,2.2,3.3,4.2,5.5,5.7c1.1,0.9,2.2,1.9,3.3,2.9c1,1,2,2.1,2.9,3.3c1.5,2.2,3.4,4.1,5.7,5.5
					c2.5,1.5,5.9,2.5,11.1,2.5s8.6-1,11.1-2.5c2.2-1.5,4.1-3.3,5.7-5.5c0.9-1.2,1.9-2.3,2.9-3.3c1-1,2.1-2,3.3-2.9
					c2.2-1.5,4.1-3.4,5.6-5.7c1.5-2.5,2.5-5.9,2.5-11.1s-1-8.6-2.5-11.1c-1.5-2.2-3.3-4.1-5.5-5.7c-1.2-0.9-2.3-1.8-3.3-2.9
					c-1-1-2-2.1-2.9-3.3c-1.5-2.2-3.4-4.1-5.7-5.5c-2.5-1.5-6-2.5-11.1-2.5s-8.6,1-11.1,2.5C146.9,4,145,5.8,143.5,8
					c-0.9,1.2-1.9,2.2-2.9,3.3c-1,1-2.1,2-3.3,2.9c-2.2,1.5-4.1,3.4-5.5,5.7c-1.5,2.5-2.5,6-2.5,11.1S130.3,39.6,131.8,42.1z"/>
				<path class="st1" d="M67.1,42.1c1.5,2.2,3.3,4.2,5.5,5.7c1.2,0.9,2.2,1.9,3.3,2.9c1,1,2,2.1,2.9,3.3c1.5,2.2,3.5,4.1,5.7,5.5
					C87,61,90.5,62,95.7,62s8.6-1,11.1-2.5c2.2-1.5,4.1-3.3,5.7-5.5c0.9-1.2,1.9-2.2,2.9-3.3c1-1,2.1-2,3.3-2.9
					c2.2-1.5,4.1-3.4,5.5-5.7c1.5-2.5,2.5-5.9,2.5-11.1s-1-8.6-2.5-11.1c-1.5-2.2-3.3-4.1-5.5-5.7c-1.2-0.9-2.3-1.8-3.3-2.9
					c-1-1-2-2.1-2.9-3.3c-1.5-2.2-3.4-4.1-5.7-5.5C104.3,1,100.8,0,95.7,0S87,1,84.5,2.5C82.3,4,80.4,5.8,78.8,8
					c-0.9,1.2-1.9,2.3-2.9,3.3c-1,1-2.1,2-3.3,2.9c-2.2,1.5-4.1,3.4-5.5,5.7c-1.5,2.5-2.5,6-2.5,11.1S65.6,39.6,67.1,42.1z"/>
				<path class="st1" d="M2.6,42.1c1.5,2.2,3.3,4.2,5.5,5.7c1.1,0.9,2.2,1.9,3.3,2.9c1,1,2,2.1,2.9,3.3c1.5,2.2,3.4,4.1,5.7,5.5
					C22.5,61,25.9,62,31.1,62s8.6-1,11.1-2.5c2.2-1.5,4.1-3.3,5.7-5.5c0.9-1.2,1.9-2.3,2.9-3.3c1-1,2.1-2,3.3-2.9
					c2.2-1.5,4.1-3.5,5.5-5.7c1.5-2.5,2.5-5.9,2.5-11.1s-1-8.6-2.5-11.1c-1.5-2.2-3.3-4.2-5.5-5.7c-1.2-0.9-2.2-1.8-3.3-2.9
					c-1-1-2-2.1-2.9-3.3c-1.5-2.2-3.4-4.1-5.7-5.5C39.7,1,36.3,0,31.1,0S22.5,1,20,2.5c-2.2,1.5-4.2,3.3-5.7,5.5
					c-0.9,1.2-1.9,2.3-2.9,3.3c-1,1-2.1,2-3.3,2.9c-2.2,1.5-4.1,3.4-5.5,5.7C1.1,22.4,0.1,25.8,0.1,31S1.1,39.6,2.6,42.1z"/>
			</g>
		</g>
	</g>
</g>
</svg>
