<?xml version="1.0" encoding="utf-8"?>
<!-- Generator: Adobe Illustrator 22.0.1, SVG Export Plug-In . SVG Version: 6.00 Build 0)  -->
<svg version="1.1" id="レイヤー_1" xmlns="http://www.w3.org/2000/svg" xmlns:xlink="http://www.w3.org/1999/xlink" x="0px"
	 y="0px" viewBox="0 0 17 17" style="enable-background:new 0 0 17 17;" xml:space="preserve">
<style type="text/css">
	.st0{fill:#D4B67C;}
	.st1{fill:#FFFFFF;}
</style>
<g>
	<rect class="st0" width="17" height="17"/>
	<g>
		<g>
			<path class="st1" d="M11.5,8.2v2.3c-0.2,0.2-0.4,0.4-0.7,0.6c-0.2,0.2-0.5,0.3-0.9,0.4c-0.3,0.1-0.7,0.2-1.2,0.2
				s-0.9-0.1-1.3-0.2c-0.4-0.2-0.8-0.4-1.1-0.7c-0.3-0.3-0.5-0.6-0.7-1S5.3,9,5.3,8.6c0-0.4,0.1-0.9,0.3-1.2C5.8,7,6,6.7,6.3,6.4
				S7,5.9,7.4,5.7s0.9-0.2,1.3-0.2c0.4,0,0.8,0.1,1.1,0.2s0.6,0.3,0.8,0.4c0.2,0.2,0.5,0.4,0.6,0.6l-0.6,0.6
				c-0.1-0.2-0.3-0.3-0.5-0.4S9.7,6.7,9.5,6.6C9.3,6.5,9,6.5,8.6,6.5S8,6.6,7.7,6.7S7.2,7,6.9,7.2C6.7,7.4,6.5,7.7,6.4,7.9
				C6.3,8.2,6.2,8.5,6.2,8.8s0.1,0.6,0.2,0.9c0.1,0.3,0.3,0.5,0.5,0.7s0.5,0.4,0.8,0.5s0.6,0.2,0.9,0.2c0.3,0,0.6,0,0.8-0.1
				s0.4-0.1,0.5-0.2c0.2-0.1,0.3-0.2,0.4-0.3v-1H9.1V8.6h2.4L11.5,8.2L11.5,8.2z"/>
		</g>
	</g>
</g>
</svg>
