<?xml version="1.0" encoding="utf-8"?>
<!-- Generator: Adobe Illustrator 22.0.1, SVG Export Plug-In . SVG Version: 6.00 Build 0)  -->
<svg version="1.1" id="レイヤー_1" xmlns="http://www.w3.org/2000/svg" xmlns:xlink="http://www.w3.org/1999/xlink" x="0px"
	 y="0px" viewBox="0 0 17 17" style="enable-background:new 0 0 17 17;" xml:space="preserve">
<style type="text/css">
	.st0{fill:#FFFFFF;}
</style>
<g>
	<rect width="17" height="17"/>
	<g>
		<g>
			<path class="st0" d="M6.3,11.6V5.2h2.6c0.3,0,0.5,0,0.7,0.1s0.4,0.2,0.6,0.4s0.3,0.3,0.4,0.5c0.1,0.2,0.1,0.4,0.1,0.6
				s0,0.4-0.1,0.6s-0.1,0.3-0.2,0.4c-0.1,0.1-0.2,0.2-0.3,0.3c0.2,0.1,0.3,0.2,0.5,0.4c0.1,0.1,0.2,0.3,0.3,0.5s0.2,0.4,0.2,0.7
				c0,0.2-0.1,0.5-0.2,0.7c-0.1,0.2-0.2,0.4-0.4,0.6s-0.4,0.3-0.6,0.4s-0.5,0.2-0.8,0.2L6.3,11.6L6.3,11.6z M7.3,6.1v1.7h1.6
				c0.3,0,0.5-0.1,0.6-0.2C9.7,7.4,9.7,7.2,9.7,7c0-0.3-0.1-0.5-0.2-0.6C9.3,6.2,9.1,6.2,8.9,6.2L7.3,6.1L7.3,6.1z M9,10.8
				c0.1,0,0.3,0,0.4-0.1s0.2-0.1,0.3-0.2s0.2-0.2,0.2-0.3S10,9.9,10,9.8s0-0.3-0.1-0.4S9.8,9.2,9.7,9.1C9.6,9,9.5,8.9,9.4,8.9
				S9.1,8.8,9,8.8H7.3v2.1H9V10.8z"/>
		</g>
	</g>
</g>
</svg>
