<?xml version="1.0" encoding="utf-8"?>
<!-- Generator: Adobe Illustrator 22.0.1, SVG Export Plug-In . SVG Version: 6.00 Build 0)  -->
<svg version="1.1" id="レイヤー_1" xmlns="http://www.w3.org/2000/svg" xmlns:xlink="http://www.w3.org/1999/xlink" x="0px"
	 y="0px" viewBox="0 0 17 17" style="enable-background:new 0 0 17 17;" xml:space="preserve">
<style type="text/css">
	.st0{fill:#B5B5B6;}
	.st1{fill:#FFFFFF;}
</style>
<g>
	<rect class="st0" width="17" height="17"/>
	<g>
		<g>
			<path class="st1" d="M9.7,9.8c0-0.2,0-0.3-0.1-0.4S9.4,9.2,9.2,9.1S8.9,9,8.7,8.9S8.3,8.8,8.1,8.7S7.7,8.6,7.5,8.5
				C7.3,8.4,7.1,8.3,7,8.2S6.7,7.9,6.6,7.7C6.5,7.5,6.5,7.3,6.5,7c0-0.2,0-0.4,0.1-0.7C6.7,6.1,6.8,5.9,7,5.8
				c0.2-0.2,0.4-0.3,0.7-0.4s0.6-0.1,0.9-0.1c0.3,0,0.6,0,0.8,0.1S9.8,5.6,10,5.7c0.2,0.1,0.3,0.3,0.5,0.4L9.9,6.8
				C9.8,6.7,9.7,6.6,9.6,6.5C9.5,6.4,9.4,6.4,9.2,6.3S8.8,6.2,8.6,6.2c-0.2,0-0.3,0-0.5,0.1C8,6.3,7.8,6.4,7.8,6.5S7.6,6.7,7.6,6.8
				c0,0.1-0.1,0.2-0.1,0.3c0,0.2,0,0.3,0.1,0.4S7.8,7.7,8,7.8C8.2,7.9,8.3,7.9,8.5,8s0.4,0.1,0.6,0.2c0.2,0.1,0.4,0.1,0.6,0.2
				s0.4,0.2,0.5,0.3c0.2,0.1,0.3,0.3,0.4,0.5c0.1,0.2,0.1,0.4,0.1,0.7c0,0.3-0.1,0.5-0.2,0.7c-0.1,0.2-0.2,0.4-0.4,0.6
				s-0.4,0.3-0.7,0.4s-0.6,0.1-1,0.1s-0.7-0.1-1-0.2s-0.5-0.2-0.7-0.3c-0.2-0.1-0.4-0.3-0.6-0.5l0.6-0.6c0.1,0.1,0.2,0.2,0.4,0.3
				c0.1,0.1,0.3,0.2,0.5,0.2c0.2,0.1,0.5,0.1,0.7,0.1c0.4,0,0.7-0.1,0.9-0.3C9.6,10.3,9.7,10,9.7,9.8z"/>
		</g>
	</g>
</g>
</svg>
