<?xml version="1.0" encoding="utf-8"?>
<!-- Generator: Adobe Illustrator 22.0.1, SVG Export Plug-In . SVG Version: 6.00 Build 0)  -->
<svg version="1.1" id="レイヤー_1" xmlns="http://www.w3.org/2000/svg" xmlns:xlink="http://www.w3.org/1999/xlink" x="0px"
	 y="0px" viewBox="0 0 17 17" style="enable-background:new 0 0 17 17;" xml:space="preserve">
<style type="text/css">
	.st0{fill:url(#SVGID_1_);}
	.st1{fill:#FFFFFF;}
</style>
<g>
	
		<linearGradient id="SVGID_1_" gradientUnits="userSpaceOnUse" x1="9.094947e-13" y1="-73.89" x2="17" y2="-56.89" gradientTransform="matrix(1 0 0 1 0 73.89)">
		<stop  offset="0" style="stop-color:#9FA0A0"/>
		<stop  offset="3.382450e-03" style="stop-color:#9A9B9B;stop-opacity:0.9818"/>
		<stop  offset="2.902005e-02" style="stop-color:#797979;stop-opacity:0.8439"/>
		<stop  offset="5.584956e-02" style="stop-color:#5C5A5A;stop-opacity:0.6996"/>
		<stop  offset="8.381495e-02" style="stop-color:#43403F;stop-opacity:0.5491"/>
		<stop  offset="0.1134" style="stop-color:#211F1E;stop-opacity:0.3899"/>
		<stop  offset="0.1457" style="stop-color:#070606;stop-opacity:0.216"/>
		<stop  offset="0.1859" style="stop-color:#000000;stop-opacity:0"/>
		<stop  offset="0.552" style="stop-color:#9FA0A0"/>
		<stop  offset="0.6403" style="stop-color:#7E7E7E;stop-opacity:0.8029"/>
		<stop  offset="0.7486" style="stop-color:#5A5858;stop-opacity:0.561"/>
		<stop  offset="0.8484" style="stop-color:#3A3636;stop-opacity:0.3384"/>
		<stop  offset="0.9354" style="stop-color:#0F0E0E;stop-opacity:0.1442"/>
		<stop  offset="1" style="stop-color:#000000;stop-opacity:0"/>
	</linearGradient>
	<rect class="st0" width="17" height="17"/>
	<g>
		<g>
			<path class="st1" d="M8.9,5.3c0.3,0,0.6,0.1,0.9,0.2c0.3,0.1,0.5,0.3,0.7,0.4c0.2,0.2,0.3,0.4,0.4,0.7s0.2,0.5,0.2,0.8
				S11,8,10.9,8.2s-0.3,0.5-0.4,0.7c-0.2,0.2-0.4,0.3-0.7,0.4S9.3,9.5,8.9,9.5H7.4v2.3h-1V5.4h2.5V5.3z M7.3,6.2v2.3h1.5
				c0.2,0,0.3,0,0.4-0.1c0.1-0.1,0.3-0.1,0.4-0.2C9.7,8.1,9.8,8,9.8,7.8c0.1-0.1,0.1-0.3,0.1-0.4c0-0.2,0-0.3-0.1-0.4
				S9.7,6.7,9.6,6.6C9.5,6.5,9.4,6.4,9.2,6.4C9.1,6.3,8.9,6.3,8.8,6.3L7.3,6.2L7.3,6.2z"/>
		</g>
	</g>
</g>
</svg>
